{
  "accessors": [
    {
      "bufferView": 2,
      "componentType": 5126,
      "count": 36,
      "max": [
        10,
        5,
        64.881889343261719
      ],
      "min": [
        -9,
        -1.4210854715202004e-14,
        39.881889343261719
      ],
      "type": "VEC3"
    },
    {
      "bufferView": 2,
      "byteOffset": 432,
      "componentType": 5126,
      "count": 36,
      "max": [
        0.40824830532073975,
        0.99237221479415894,
        0.59940826892852783
      ],
      "min": [
        -0.34077709913253784,
        0.79900187253952026,
        -0.40824830532073975
      ],
      "type": "VEC3"
    },
    {
      "bufferView": 3,
      "componentType": 5126,
      "count": 36,
      "max": [
        -0.9044182300567627,
        0.42248499393463135,
        0.14135892689228058,
        1
      ],
      "min": [
        -0.99843156337738037,
        -0.3100883960723877,
        -0.059448271989822388,
        1
      ],
      "type": "VEC4"
    },
    {
      "bufferView": 1,
      "componentType": 5126,
      "count": 36,
      "max": [
        -0.14326183497905731,
        0.07812664657831192
      ],
      "min": [
        -0.89535057544708252,
        -0.99791264533996582
      ],
      "type": "VEC2"
    },
    {
      "bufferView": 0,
      "componentType": 5125,
      "count": 36,
      "max": [
        35
      ],
      "min": [
        0
      ],
      "type": "SCALAR"
    },
    {
      "bufferView": 2,
      "byteOffset": 864,
      "componentType": 5126,
      "count": 1889,
      "max": [
        26,
        10,
        81.881889343261719
      ],
      "min": [
        -25,
        -35,
        -0.11811023950576782
      ],
      "type": "VEC3"
    },
    {
      "bufferView": 2,
      "byteOffset": 23532,
      "componentType": 5126,
      "count": 1889,
      "max": [
        1,
        1,
        1
      ],
      "min": [
        -1,
        -1,
        -1
      ],
      "type": "VEC3"
    },
    {
      "bufferView": 3,
      "byteOffset": 576,
      "componentType": 5126,
      "count": 1889,
      "max": [
        1,
        0.99998128414154053,
        0.98695677518844604,
        1
      ],
      "min": [
        -1,
        -1,
        -0.9877123236656189,
        -1
      ],
      "type": "VEC4"
    },
    {
      "bufferView": 1,
      "byteOffset": 288,
      "componentType": 5126,
      "count": 1889,
      "max": [
        18.155237197875977,
        15.563638687133789
      ],
      "min": [
        -22.243808746337891,
        -4.8922715187072754
      ],
      "type": "VEC2"
    },
    {
      "bufferView": 0,
      "byteOffset": 144,
      "componentType": 5125,
      "count": 1947,
      "max": [
        1888
      ],
      "min": [
        0
      ],
      "type": "SCALAR"
    },
    {
      "bufferView": 2,
      "byteOffset": 46200,
      "componentType": 5126,
      "count": 90,
      "max": [
        18,
        -2,
        11.881889343261719
      ],
      "min": [
        -17,
        -16,
        1.881889820098877
      ],
      "type": "VEC3"
    },
    {
      "bufferView": 2,
      "byteOffset": 47280,
      "componentType": 5126,
      "count": 90,
      "max": [
        0.78633368015289307,
        0.72760689258575439,
        1
      ],
      "min": [
        -0.78633368015289307,
        -0.96152395009994507,
        0.16903086006641388
      ],
      "type": "VEC3"
    },
    {
      "bufferView": 3,
      "byteOffset": 30800,
      "componentType": 5126,
      "count": 90,
      "max": [
        0.98107761144638062,
        -0.053190261125564575,
        0.87536609172821045,
        1
      ],
      "min": [
        -0.98107761144638062,
        -0.61912679672241211,
        -0.7105439305305481,
        -1
      ],
      "type": "VEC4"
    },
    {
      "bufferView": 1,
      "byteOffset": 15400,
      "componentType": 5126,
      "count": 90,
      "max": [
        -1.2904454469680786,
        -0.98703020811080933
      ],
      "min": [
        -1.7537796497344971,
        -1.7794445753097534
      ],
      "type": "VEC2"
    },
    {
      "bufferView": 0,
      "byteOffset": 7932,
      "componentType": 5125,
      "count": 90,
      "max": [
        89
      ],
      "min": [
        0
      ],
      "type": "SCALAR"
    },
    {
      "bufferView": 2,
      "byteOffset": 48360,
      "componentType": 5126,
      "count": 104,
      "max": [
        11,
        -10,
        69.881889343261719
      ],
      "min": [
        -10,
        -17,
        49.881889343261719
      ],
      "type": "VEC3"
    },
    {
      "bufferView": 2,
      "byteOffset": 49608,
      "componentType": 5126,
      "count": 104,
      "max": [
        0.84799832105636597,
        0.64699667692184448,
        0.83516997098922729
      ],
      "min": [
        -0.84799832105636597,
        -1,
        -1
      ],
      "type": "VEC3"
    },
    {
      "bufferView": 0,
      "byteOffset": 8292,
      "componentType": 5125,
      "count": 123,
      "max": [
        103
      ],
      "min": [
        0
      ],
      "type": "SCALAR"
    }
  ],
  "asset": {
    "extras": {
      "author": "r2d2dude12 (https://sketchfab.com/r2d2dude12)",
      "license": "CC-BY-4.0 (http://creativecommons.org/licenses/by/4.0/)",
      "source": "https://sketchfab.com/models/1b03d855ede0483f8fa98ce0fdf7f62b",
      "title": "Crash Bandicoot!"
    },
    "generator": "Sketchfab-3.20.7",
    "version": "2.0"
  },
  "bufferViews": [
    {
      "buffer": 0,
      "byteLength": 8784,
      "byteOffset": 0,
      "name": "floatBufferViews",
      "target": 34963
    },
    {
      "buffer": 0,
      "byteLength": 16120,
      "byteOffset": 8784,
      "byteStride": 8,
      "name": "floatBufferViews",
      "target": 34962
    },
    {
      "buffer": 0,
      "byteLength": 50856,
      "byteOffset": 24904,
      "byteStride": 12,
      "name": "floatBufferViews",
      "target": 34962
    },
    {
      "buffer": 0,
      "byteLength": 32240,
      "byteOffset": 75760,
      "byteStride": 16,
      "name": "floatBufferViews",
      "target": 34962
    }
  ],
  "buffers": [
    {
      "byteLength": 108000,
      "uri": "scene.bin"
    }
  ],
  "images": [
    {
      "uri": "textures/CrashBack_baseColor.png"
    },
    {
      "uri": "textures/CrashShoes_baseColor.png"
    },
    {
      "uri": "textures/material_1_baseColor.png"
    }
  ],
  "materials": [
    {
      "doubleSided": false,
      "emissiveFactor": [
        0,
        0,
        0
      ],
      "name": "material_1",
      "pbrMetallicRoughness": {
        "baseColorFactor": [
          1,
          1,
          1,
          1
        ],
        "baseColorTexture": {
          "index": 2,
          "texCoord": 0
        },
        "metallicFactor": 0,
        "roughnessFactor": 0.59999999999999998
      }
    },
    {
      "doubleSided": false,
      "emissiveFactor": [
        0,
        0,
        0
      ],
      "name": "CrashShoes",
      "pbrMetallicRoughness": {
        "baseColorFactor": [
          1,
          1,
          1,
          1
        ],
        "baseColorTexture": {
          "index": 1,
          "texCoord": 0
        },
        "metallicFactor": 0,
        "roughnessFactor": 0.59999999999999998
      }
    },
    {
      "doubleSided": false,
      "emissiveFactor": [
        0,
        0,
        0
      ],
      "name": "CrashBack",
      "pbrMetallicRoughness": {
        "baseColorFactor": [
          1,
          1,
          1,
          1
        ],
        "baseColorTexture": {
          "index": 0,
          "texCoord": 0
        },
        "metallicFactor": 0,
        "roughnessFactor": 0.59999999999999998
      }
    },
    {
      "doubleSided": false,
      "emissiveFactor": [
        0,
        0,
        0
      ],
      "name": "material",
      "pbrMetallicRoughness": {
        "baseColorFactor": [
          1,
          1,
          1,
          1
        ],
        "metallicFactor": 0,
        "roughnessFactor": 0.59999999999999998
      }
    }
  ],
  "meshes": [
    {
      "name": "Material2",
      "primitives": [
        {
          "attributes": {
            "NORMAL": 1,
            "POSITION": 0,
            "TANGENT": 2,
            "TEXCOORD_0": 3
          },
          "indices": 4,
          "material": 2,
          "mode": 4
        }
      ]
    },
    {
      "name": "Material2",
      "primitives": [
        {
          "attributes": {
            "NORMAL": 6,
            "POSITION": 5,
            "TANGENT": 7,
            "TEXCOORD_0": 8
          },
          "indices": 9,
          "material": 0,
          "mode": 4
        }
      ]
    },
    {
      "name": "Material2",
      "primitives": [
        {
          "attributes": {
            "NORMAL": 11,
            "POSITION": 10,
            "TANGENT": 12,
            "TEXCOORD_0": 13
          },
          "indices": 14,
          "material": 1,
          "mode": 4
        }
      ]
    },
    {
      "name": "Material2",
      "primitives": [
        {
          "attributes": {
            "NORMAL": 16,
            "POSITION": 15
          },
          "indices": 17,
          "material": 3,
          "mode": 4
        }
      ]
    }
  ],
  "nodes": [
    {
      "children": [
        1
      ],
      "name": "RootNode (gltf orientation matrix)",
      "rotation": [
        -0.70710678118654746,
        -0,
        -0,
        0.70710678118654757
      ]
    },
    {
      "children": [
        2
      ],
      "name": "RootNode (model correction matrix)"
    },
    {
      "children": [
        3
      ],
      "name": "Collada visual scene group"
    },
    {
      "children": [
        4,
        5,
        6,
        7
      ],
      "name": "SketchUp"
    },
    {
      "mesh": 0,
      "name": "Material2"
    },
    {
      "mesh": 1,
      "name": "Material2"
    },
    {
      "mesh": 2,
      "name": "Material2"
    },
    {
      "mesh": 3,
      "name": "Material2"
    }
  ],
  "samplers": [
    {
      "magFilter": 9729,
      "minFilter": 9987,
      "wrapS": 10497,
      "wrapT": 10497
    }
  ],
  "scene": 0,
  "scenes": [
    {
      "name": "OSG_Scene",
      "nodes": [
        0
      ]
    }
  ],
  "textures": [
    {
      "sampler": 0,
      "source": 0
    },
    {
      "sampler": 0,
      "source": 1
    },
    {
      "sampler": 0,
      "source": 2
    }
  ]
}

